<svg width="160" height="114" viewBox="0 0 160 114" fill="none" xmlns="http://www.w3.org/2000/svg">
<path d="M100.44 67.96C99.672 67.96 98.648 67.7253 97.368 67.256C96.216 66.8293 94.6373 66.2533 92.632 65.528C90.6267 64.8453 88.408 64.0773 85.976 63.224C83.544 62.3707 81.0907 61.496 78.616 60.6C76.184 59.704 73.9013 58.872 71.768 58.104C71.7253 58.232 71.6827 58.424 71.64 58.68C71.64 58.8933 71.512 59 71.256 59C71.128 59 70.936 58.936 70.68 58.808C70.1253 58.552 69.464 58.2747 68.696 57.976C67.9707 57.6347 67.2453 57.3147 66.52 57.016C66.0507 57.8693 65.7947 58.5307 65.752 59C65.6667 59.9387 65.368 60.408 64.856 60.408C64.6853 60.408 64.4933 60.2587 64.28 59.96C64.1093 59.704 64.024 59.256 64.024 58.616C64.024 57.7627 64.1733 56.9093 64.472 56.056C63.7893 55.7147 63.448 55.4373 63.448 55.224C63.4907 54.8827 63.704 54.3707 64.088 53.688C64.472 52.9627 64.92 52.3227 65.432 51.768C65.9867 51.1707 66.4773 50.872 66.904 50.872C67.032 50.872 67.1387 50.8933 67.224 50.936C67.3093 51.0213 67.3733 51.064 67.416 51.064C68.952 49.1013 70.872 47.0533 73.176 44.92C75.5227 42.744 77.976 40.5893 80.536 38.456C83.096 36.3227 85.5493 34.3173 87.896 32.44C90.2853 30.52 92.312 28.8347 93.976 27.384C95.64 25.9333 96.7067 24.824 97.176 24.056H96.216C94.2533 24.056 92.632 23.928 91.352 23.672C90.1147 23.3733 89.0267 23.0533 88.088 22.712C87.1493 22.328 86.1893 22.008 85.208 21.752C84.2267 21.4533 83.0107 21.304 81.56 21.304C79.384 21.304 77.656 21.6667 76.376 22.392C75.1387 23.0747 74.2 23.9067 73.56 24.888C72.9627 25.8693 72.5573 26.808 72.344 27.704C72.1733 28.5573 72.088 29.176 72.088 29.56C72.088 30.3707 71.9387 30.776 71.64 30.776C71.4693 30.776 71.2773 30.52 71.064 30.008C70.8933 29.496 70.808 28.8133 70.808 27.96C70.808 27.6613 70.872 27.2347 71 26.68C71.128 26.0827 71.448 25.272 71.96 24.248C72.5147 23.224 73.432 21.9013 74.712 20.28C76.2053 18.36 77.8267 16.9733 79.576 16.12C81.3253 15.2667 82.8613 14.84 84.184 14.84C84.824 14.84 85.3787 14.9253 85.848 15.096C86.4453 15.352 87.2133 15.8427 88.152 16.568C89.0907 17.2933 90.1147 18.104 91.224 19C92.3333 19.8533 93.464 20.6 94.616 21.24C95.8107 21.8373 96.984 22.136 98.136 22.136C99.2453 22.136 100.291 21.8587 101.272 21.304C102.296 20.7493 103.213 20.1093 104.024 19.384C104.877 18.616 105.581 17.912 106.136 17.272C106.733 16.632 107.117 16.2267 107.288 16.056C107.501 15.8427 107.693 15.6507 107.864 15.48C108.077 15.2667 108.333 15.16 108.632 15.16C108.888 15.16 109.208 15.3093 109.592 15.608C109.976 15.9067 110.317 16.248 110.616 16.632C110.915 16.9733 111.064 17.2933 111.064 17.592C111.064 17.9333 110.787 18.296 110.232 18.68C109.677 19.0213 108.76 19.448 107.48 19.96C105.645 20.6853 103.427 21.9227 100.824 23.672C98.264 25.4213 95.5333 27.4907 92.632 29.88C89.7307 32.2693 86.8293 34.808 83.928 37.496C81.0693 40.184 78.4027 42.8293 75.928 45.432C73.4533 47.992 71.3627 50.3387 69.656 52.472C70.9787 53.1973 72.536 54.0293 74.328 54.968C76.1627 55.864 78.104 56.7813 80.152 57.72C82.2427 58.6587 84.312 59.512 86.36 60.28C88.4507 61.048 90.392 61.6667 92.184 62.136C93.976 62.6053 95.512 62.84 96.792 62.84C98.584 62.84 99.48 62.0507 99.48 60.472C99.48 59.3627 99.1173 58.0827 98.392 56.632C97.7093 55.1387 96.8133 53.6667 95.704 52.216C94.6373 50.7227 93.4853 49.4853 92.248 48.504C91.6933 48.0773 91.416 47.736 91.416 47.48C91.416 47.3093 91.5653 47.224 91.864 47.224C92.12 47.224 92.4613 47.3093 92.888 47.48C93.3147 47.608 93.72 47.8427 94.104 48.184C94.8293 48.7813 95.6827 49.7627 96.664 51.128C97.688 52.4507 98.6693 53.9653 99.608 55.672C100.589 57.3787 101.4 59.064 102.04 60.728C102.68 62.392 103 63.8427 103 65.08C103 65.9333 102.808 66.616 102.424 67.128C102.04 67.6827 101.379 67.96 100.44 67.96Z" fill="black"/>
<path d="M97.416 85.432C95.5813 85.432 93.6187 85.176 91.528 84.664C89.4373 84.1947 87.3893 83.5333 85.384 82.68C83.4213 81.784 81.6507 80.7813 80.072 79.672C78.536 78.5627 77.384 77.368 76.616 76.088C76.2747 76.088 75.8907 76.1093 75.464 76.152C75.0373 76.1947 74.5893 76.216 74.12 76.216C73.608 76.216 72.968 76.1307 72.2 75.96C71.432 75.7893 70.7493 75.4907 70.152 75.064C69.5547 74.6373 69.256 74.0613 69.256 73.336C69.256 72.9947 69.4907 72.696 69.96 72.44C70.472 72.184 71.4107 72.056 72.776 72.056C75.4213 72.056 77.256 72.8667 78.28 74.488C79.688 74.6587 81.1813 74.7867 82.76 74.872C84.3387 74.9573 85.96 75 87.624 75C89.3307 75 91.0373 74.9573 92.744 74.872C94.4933 74.7867 96.2213 74.6373 97.928 74.424C96.9893 72.9307 95.9227 71.4373 94.728 69.944C93.576 68.4507 92.6587 67.2347 91.976 66.296C90.3973 64.1627 88.84 61.9653 87.304 59.704C85.768 57.4 84.296 54.7973 82.888 51.896C82.3333 50.7867 82.056 49.656 82.056 48.504C82.056 46.7973 82.5893 45.1973 83.656 43.704C84.7227 42.168 86.0667 40.76 87.688 39.48C89.3093 38.2 91.016 37.0907 92.808 36.152C94.6427 35.1707 96.2853 34.36 97.736 33.72C99.272 33.08 100.829 32.5893 102.408 32.248C103.987 31.864 105.501 31.672 106.952 31.672C107.805 31.672 108.616 31.736 109.384 31.864C110.451 32.0347 111.475 32.6107 112.456 33.592C113.48 34.5307 114.333 35.6613 115.016 36.984C115.699 38.264 116.04 39.544 116.04 40.824C116.04 42.0187 115.741 43.4053 115.144 44.984C114.589 46.52 113.864 48.0987 112.968 49.72C112.072 51.2987 111.112 52.792 110.088 54.2C109.064 55.5653 108.104 56.6747 107.208 57.528C106.355 58.3813 105.672 58.808 105.16 58.808C104.435 58.808 103.773 58.424 103.176 57.656C102.621 56.888 102.344 56.2907 102.344 55.864C102.344 55.608 102.408 55.4587 102.536 55.416C103.688 54.5627 104.904 53.4107 106.184 51.96C107.464 50.5093 108.637 48.952 109.704 47.288C110.813 45.5813 111.709 43.9173 112.392 42.296C113.117 40.632 113.48 39.2027 113.48 38.008C113.48 36.6427 112.968 35.7253 111.944 35.256C110.963 34.744 109.725 34.488 108.232 34.488C106.824 34.488 105.331 34.7227 103.752 35.192C102.173 35.6187 100.787 36.1307 99.592 36.728C95.7093 38.648 92.7227 40.504 90.632 42.296C88.5413 44.0453 87.0907 45.688 86.28 47.224C85.512 48.76 85.128 50.168 85.128 51.448C85.128 52.7707 85.768 54.5413 87.048 56.76C88.328 58.936 90.504 61.88 93.576 65.592C94.728 67 95.9653 68.4293 97.288 69.88C98.6533 71.288 99.8907 72.6533 101 73.976C103.005 73.6347 104.861 73.208 106.568 72.696C108.317 72.184 109.853 71.5867 111.176 70.904C111.219 70.8613 111.283 70.84 111.368 70.84C111.496 70.84 111.56 70.904 111.56 71.032C111.56 71.3733 111.411 71.6293 111.112 71.8C110.173 72.4827 108.915 73.1013 107.336 73.656C105.757 74.2107 103.965 74.7013 101.96 75.128C102.813 76.152 103.496 77.1333 104.008 78.072C104.52 78.968 104.776 79.7787 104.776 80.504C104.776 82.2533 104.072 83.512 102.664 84.28C101.299 85.048 99.5493 85.432 97.416 85.432ZM94.28 83.192C95.944 83.192 97.3093 82.8933 98.376 82.296C99.4853 81.6987 100.04 80.7813 100.04 79.544C100.04 79.032 99.912 78.456 99.656 77.816C99.4 77.1333 99.0587 76.4293 98.632 75.704C94.664 76.3013 90.568 76.6 86.344 76.6C83.8693 76.6 81.5013 76.472 79.24 76.216C80.264 77.5813 81.608 78.7973 83.272 79.864C84.9787 80.9307 86.792 81.7627 88.712 82.36C90.6747 82.9147 92.5307 83.192 94.28 83.192Z" fill="white"/>
<path d="M121.808 62.072C121.552 62.072 121.275 62.0293 120.976 61.944C120.72 61.816 120.464 61.688 120.208 61.56C120.037 61.432 119.952 61.2613 119.952 61.048C119.952 60.664 120.187 60.1947 120.656 59.64C121.125 59.0427 121.723 58.5307 122.448 58.104C123.173 57.6773 123.877 57.464 124.56 57.464C124.944 57.464 125.136 57.5707 125.136 57.784C125.136 57.9547 124.944 58.168 124.56 58.424C124.091 58.7653 123.749 59.2347 123.536 59.832C123.323 60.4293 123.109 60.9627 122.896 61.432C122.683 61.8587 122.32 62.072 121.808 62.072ZM118.352 81.4C117.541 81.4 116.987 81.144 116.688 80.632C116.389 80.12 116.24 79.3307 116.24 78.264C116.24 77.7093 116.261 77.112 116.304 76.472C116.347 75.832 116.432 75.1067 116.56 74.296C116.944 71.3947 117.371 69.0907 117.84 67.384C118.309 65.6347 118.907 64.76 119.632 64.76C120.229 64.76 120.763 65.1013 121.232 65.784C121.701 66.4667 122.021 66.9573 122.192 67.256C121.893 67.8107 121.488 68.7067 120.976 69.944C120.507 71.1813 120.08 72.4827 119.696 73.848C119.312 75.2133 119.12 76.408 119.12 77.432C119.12 78.456 119.355 78.968 119.824 78.968C120.208 78.968 120.635 78.7547 121.104 78.328C121.616 77.9013 122.085 77.432 122.512 76.92C122.981 76.408 123.28 76.0453 123.408 75.832C124.859 73.656 125.776 71.992 126.16 70.84C126.587 69.688 126.992 69.112 127.376 69.112C127.547 69.112 127.632 69.24 127.632 69.496C127.632 69.6667 127.589 69.8587 127.504 70.072C127.461 70.2427 127.397 70.4773 127.312 70.776C127.056 71.4587 126.651 72.3973 126.096 73.592C125.541 74.744 124.859 75.9173 124.048 77.112C123.28 78.3067 122.405 79.3307 121.424 80.184C120.485 80.9947 119.461 81.4 118.352 81.4ZM134.362 83.96C132.869 83.96 131.653 83.4907 130.714 82.552C129.775 81.5707 129.05 80.312 128.538 78.776C128.069 77.24 127.749 75.5973 127.578 73.848C127.407 72.056 127.322 70.3707 127.322 68.792C127.322 67.8533 127.343 67 127.386 66.232C127.429 65.4213 127.471 64.7387 127.514 64.184C127.599 62.5627 127.749 60.792 127.962 58.872C128.175 56.9093 128.431 54.904 128.73 52.856C126.511 53.1973 124.485 53.4747 122.65 53.688C120.773 53.9013 119.215 54.008 117.978 54.008C117.807 54.008 117.551 53.7947 117.21 53.368C116.869 52.9413 116.613 52.4933 116.442 52.024C116.229 51.5547 116.207 51.3413 116.378 51.384C116.805 51.4267 117.21 51.4693 117.594 51.512C117.978 51.512 118.383 51.512 118.81 51.512C120.09 51.512 121.519 51.4267 123.098 51.256C124.634 51.0853 126.618 50.872 129.05 50.616C129.391 48.4827 129.754 46.3707 130.138 44.28C130.565 42.1893 130.991 40.2053 131.418 38.328C131.631 37.4747 131.823 36.792 131.994 36.28C132.207 35.768 132.591 35.5547 133.146 35.64C133.658 35.7253 134.191 35.9173 134.746 36.216C135.301 36.5147 135.685 36.856 135.898 37.24C136.751 38.0507 137.37 39.0747 137.754 40.312C138.138 41.5067 138.33 42.8507 138.33 44.344C138.33 45.9227 138.138 47.6507 137.754 49.528C140.101 49.1867 142.511 48.7813 144.986 48.312C147.503 47.8 149.935 47.288 152.282 46.776C154.671 46.2213 156.826 45.7307 158.746 45.304C159.045 45.2187 159.087 45.2613 158.874 45.432C158.661 45.56 158.362 45.7093 157.978 45.88C157.594 46.0507 157.274 46.1787 157.018 46.264C154.33 47.2027 151.258 48.12 147.802 49.016C144.346 49.912 140.869 50.7013 137.37 51.384C136.687 54.2427 135.727 57.208 134.49 60.28C133.253 63.3093 131.951 66.232 130.586 69.048C130.586 69.4747 130.565 69.9013 130.522 70.328C130.522 70.712 130.522 71.1173 130.522 71.544C130.522 73.6347 130.629 75.512 130.842 77.176C131.098 78.7973 131.503 80.12 132.058 81.144C132.442 81.8693 132.869 82.3813 133.338 82.68C133.85 82.936 134.341 83.064 134.81 83.064C135.279 83.064 135.727 82.9787 136.154 82.808C136.581 82.6373 136.901 82.5093 137.114 82.424C137.583 82.2107 137.903 82.1253 138.074 82.168C138.245 82.2107 138.223 82.3387 138.01 82.552C137.882 82.7227 137.498 83 136.858 83.384C136.218 83.768 135.386 83.96 134.362 83.96ZM133.146 50.168L134.042 50.04L136.282 49.784C136.495 48.8027 136.645 47.864 136.73 46.968C136.858 46.072 136.922 45.2187 136.922 44.408C136.922 42.1893 136.517 40.4187 135.706 39.096C135.237 40.8027 134.789 42.5947 134.362 44.472C133.935 46.3493 133.53 48.248 133.146 50.168ZM130.778 65.72C131.802 63.3733 132.762 61.0053 133.658 58.616C134.554 56.2267 135.279 53.9227 135.834 51.704C135.279 51.7893 134.746 51.8747 134.234 51.96C133.722 52.0453 133.21 52.1307 132.698 52.216C132.271 54.52 131.887 56.824 131.546 59.128C131.247 61.3893 130.991 63.5867 130.778 65.72ZM143.71 81.976C142.259 81.976 141.129 81.5067 140.318 80.568C139.55 79.6293 139.017 78.4347 138.718 76.984C138.462 75.4907 138.334 73.9973 138.334 72.504C138.334 71.48 138.377 70.52 138.462 69.624C138.547 68.6853 138.633 67.8747 138.718 67.192C138.931 65.4427 139.209 63.7573 139.55 62.136C139.891 60.5147 140.211 59.128 140.51 57.976C140.851 56.824 141.065 56.0773 141.15 55.736C141.321 55.1387 141.641 54.84 142.11 54.84C142.579 54.84 143.113 55.16 143.71 55.8C144.307 56.3973 144.734 56.888 144.99 57.272C145.971 57.5707 146.931 57.9333 147.87 58.36C148.809 58.744 149.577 59.1707 150.174 59.64C150.814 60.1093 151.134 60.6213 151.134 61.176C151.134 62.2427 150.686 63.3093 149.79 64.376C148.894 65.4427 147.763 66.424 146.398 67.32C145.033 68.216 143.646 68.984 142.238 69.624C142.11 70.648 142.046 71.672 142.046 72.696C142.046 74.4027 142.259 75.896 142.686 77.176C143.113 78.456 143.838 79.096 144.862 79.096C145.758 79.096 146.611 78.776 147.422 78.136C148.275 77.496 149.065 76.6853 149.79 75.704C150.515 74.7227 151.155 73.7413 151.71 72.76C152.307 71.736 152.755 70.8827 153.054 70.2C153.139 69.944 153.331 69.816 153.63 69.816C153.801 69.816 153.886 70.008 153.886 70.392C153.886 70.7333 153.63 71.4587 153.118 72.568C152.606 73.592 152.073 74.5733 151.518 75.512C151.006 76.408 150.494 77.1973 149.982 77.88C149.257 78.8187 148.361 79.736 147.294 80.632C146.27 81.528 145.075 81.976 143.71 81.976ZM142.43 67.832C143.923 67.0213 145.246 66.0613 146.398 64.952C147.593 63.8 148.19 62.5627 148.19 61.24C148.19 60.7707 147.827 60.3013 147.102 59.832C146.419 59.32 145.609 58.8933 144.67 58.552C144.158 59.9173 143.71 61.368 143.326 62.904C142.985 64.44 142.686 66.0827 142.43 67.832Z" fill="white"/>
<path d="M10.856 67.896C10.4293 67.8533 9.98133 67.576 9.512 67.064C9.04267 66.5947 8.65867 66.0613 8.36 65.464C8.06133 64.8667 7.912 64.44 7.912 64.184C7.912 62.9893 9.14933 61.432 11.624 59.512C14.1413 57.6347 17.6827 55.8213 22.248 54.072L35.624 48.952C36.4773 47.4587 37.096 45.944 37.48 44.408C37.9067 42.8293 38.12 41.272 38.12 39.736C38.12 35.9387 37.1813 32.5253 35.304 29.496C33.4693 26.4667 31.016 23.9067 27.944 21.816C24.872 19.6827 21.5013 18.1467 17.832 17.208C16.296 19.9813 14.9093 23.0533 13.672 26.424C12.4773 29.7947 11.4533 33.2507 10.6 36.792C9.74667 40.3333 9.08533 43.768 8.616 47.096C8.14667 50.424 7.912 53.4533 7.912 56.184C7.912 57.5067 7.95467 58.616 8.04 59.512C8.12533 60.4507 8.232 61.3467 8.36 62.2C8.36 62.2427 8.33867 62.264 8.296 62.264C7.784 62.264 7.35733 61.88 7.016 61.112C6.71733 60.3867 6.48267 59.4907 6.312 58.424C6.184 57.3147 6.12 56.248 6.12 55.224C6.12 52.024 6.39733 48.6107 6.952 44.984C7.54933 41.3573 8.296 37.752 9.192 34.168C10.1307 30.584 11.0907 27.256 12.072 24.184C13.0533 21.112 13.928 18.552 14.696 16.504C13.8427 16.376 12.968 16.2693 12.072 16.184C11.2187 16.0987 10.3653 16.056 9.512 16.056C7.67733 16.056 5.992 16.184 4.456 16.44C2.96267 16.6533 1.85333 16.8667 1.128 17.08C0.829333 17.0373 0.68 16.9093 0.68 16.696C0.68 16.312 1.32 15.8213 2.6 15.224C3.92267 14.6267 5.43733 14.1147 7.144 13.688C9.40533 13.0907 11.6667 12.792 13.928 12.792C14.312 12.792 14.696 12.8133 15.08 12.856C15.464 12.856 15.848 12.8773 16.232 12.92C16.3173 12.7493 16.3813 12.6213 16.424 12.536C16.5093 12.408 16.5733 12.3013 16.616 12.216C17 11.5333 17.384 11.192 17.768 11.192C18.024 11.192 18.216 11.384 18.344 11.768C18.472 12.152 18.5573 12.6213 18.6 13.176C21.8 13.688 24.872 14.6907 27.816 16.184C30.76 17.6773 33.384 19.5333 35.688 21.752C37.992 23.9707 39.8053 26.4667 41.128 29.24C42.4933 32.0133 43.176 34.936 43.176 38.008C43.176 39.4587 43.0053 40.9307 42.664 42.424C42.3653 43.9173 41.8533 45.4107 41.128 46.904C42.664 46.4347 43.688 46.072 44.2 45.816C44.712 45.5173 45.1173 45.368 45.416 45.368C45.544 45.368 45.608 45.4107 45.608 45.496C45.608 45.5813 45.416 45.7733 45.032 46.072C44.648 46.3707 44.2 46.6907 43.688 47.032C43.176 47.3307 42.728 47.5653 42.344 47.736L40.232 48.632C39.464 49.9547 38.568 51.2987 37.544 52.664C36.52 54.0293 35.3253 55.352 33.96 56.632C32.296 58.2107 30.4187 59.6613 28.328 60.984C26.28 62.3493 24.168 63.5227 21.992 64.504C19.8587 65.4853 17.8107 66.2747 15.848 66.872C13.928 67.4693 12.264 67.8107 10.856 67.896ZM10.408 64.248C12.584 63.6507 14.504 63.0747 16.168 62.52C17.8747 62.008 19.432 61.432 20.84 60.792C22.2907 60.152 23.72 59.4053 25.128 58.552C26.536 57.656 28.072 56.5893 29.736 55.352C31.4853 54.072 32.9573 52.664 34.152 51.128C32.3173 51.8533 30.4187 52.6213 28.456 53.432C26.536 54.2 24.5733 54.968 22.568 55.736C21.4587 56.1627 20.2 56.7813 18.792 57.592C17.4267 58.36 16.104 59.192 14.824 60.088C13.544 60.984 12.4773 61.7947 11.624 62.52C10.8133 63.288 10.408 63.864 10.408 64.248ZM53.8975 57.976C52.4468 57.976 51.3162 57.5067 50.5055 56.568C49.7375 55.6293 49.2042 54.4347 48.9055 52.984C48.6495 51.4907 48.5215 49.9973 48.5215 48.504C48.5215 47.48 48.5642 46.52 48.6495 45.624C48.7348 44.6853 48.8202 43.8747 48.9055 43.192C49.1188 41.4427 49.3962 39.7573 49.7375 38.136C50.0788 36.5147 50.3988 35.128 50.6975 33.976C51.0388 32.824 51.2522 32.0773 51.3375 31.736C51.5082 31.1387 51.8282 30.84 52.2975 30.84C52.7668 30.84 53.3002 31.16 53.8975 31.8C54.4948 32.3973 54.9215 32.888 55.1775 33.272C56.1588 33.5707 57.1188 33.9333 58.0575 34.36C58.9962 34.744 59.7642 35.1707 60.3615 35.64C61.0015 36.1093 61.3215 36.6213 61.3215 37.176C61.3215 38.2427 60.8735 39.3093 59.9775 40.376C59.0815 41.4427 57.9508 42.424 56.5855 43.32C55.2202 44.216 53.8335 44.984 52.4255 45.624C52.2975 46.648 52.2335 47.672 52.2335 48.696C52.2335 50.4027 52.4468 51.896 52.8735 53.176C53.3002 54.456 54.0255 55.096 55.0495 55.096C55.9455 55.096 56.7988 54.776 57.6095 54.136C58.4628 53.496 59.2522 52.6853 59.9775 51.704C60.7028 50.7227 61.3428 49.7413 61.8975 48.76C62.4948 47.736 62.9428 46.8827 63.2415 46.2C63.3268 45.944 63.5188 45.816 63.8175 45.816C63.9882 45.816 64.0735 46.008 64.0735 46.392C64.0735 46.7333 63.8175 47.4587 63.3055 48.568C62.7935 49.592 62.2602 50.5733 61.7055 51.512C61.1935 52.408 60.6815 53.1973 60.1695 53.88C59.4442 54.8187 58.5482 55.736 57.4815 56.632C56.4575 57.528 55.2628 57.976 53.8975 57.976ZM52.6175 43.832C54.1108 43.0213 55.4335 42.0613 56.5855 40.952C57.7802 39.8 58.3775 38.5627 58.3775 37.24C58.3775 36.7707 58.0148 36.3013 57.2895 35.832C56.6068 35.32 55.7962 34.8933 54.8575 34.552C54.3455 35.9173 53.8975 37.368 53.5135 38.904C53.1722 40.44 52.8735 42.0827 52.6175 43.832Z" fill="black"/>
</svg>
